<svg width="31" height="30" viewBox="0 0 31 30" fill="none" xmlns="http://www.w3.org/2000/svg">
<path fill-rule="evenodd" clip-rule="evenodd" d="M15.5861 0C23.8706 0 30.5861 6.7155 30.5861 15C30.5861 23.2845 23.8706 30 15.5861 30C7.30162 30 0.586121 23.2845 0.586121 15C0.586121 6.7155 7.30162 0 15.5861 0ZM15.5861 3C12.4035 3 9.35127 4.26428 7.10084 6.51472C4.8504 8.76515 3.58612 11.8174 3.58612 15C3.58612 18.1826 4.8504 21.2348 7.10084 23.4853C9.35127 25.7357 12.4035 27 15.5861 27C18.7687 27 21.821 25.7357 24.0714 23.4853C26.3218 21.2348 27.5861 18.1826 27.5861 15C27.5861 11.8174 26.3218 8.76515 24.0714 6.51472C21.821 4.26428 18.7687 3 15.5861 3V3ZM13.3421 7.704L22.3421 13.704C22.5542 13.8275 22.7328 14.0012 22.8621 14.2099C22.9915 14.4185 23.0676 14.6557 23.0839 14.9007C23.1002 15.1456 23.0561 15.3908 22.9556 15.6147C22.855 15.8386 22.701 16.0345 22.5071 16.185L13.3421 22.296C13.1142 22.429 12.8551 22.4995 12.5912 22.5004C12.3273 22.5013 12.0678 22.4326 11.8389 22.3011C11.6101 22.1696 11.42 21.9801 11.2878 21.7517C11.1556 21.5232 11.086 21.2639 11.0861 21V9C11.086 8.73607 11.1556 8.47679 11.2878 8.24834C11.42 8.0199 11.6101 7.83037 11.8389 7.6989C12.0678 7.56743 12.3273 7.49867 12.5912 7.49956C12.8551 7.50046 13.1142 7.57098 13.3421 7.704Z" fill="white"/>
</svg>
