<svg width="15" height="15" viewBox="0 0 15 15" fill="none" xmlns="http://www.w3.org/2000/svg">
<path d="M9.24185 14.7494C8.99052 14.7494 8.75852 14.6074 8.64518 14.3808L6.66652 10.4234C6.55785 10.2061 6.57652 9.94611 6.71452 9.74544L9.90852 5.41611L5.57852 8.60944C5.37785 8.74811 5.11785 8.76544 4.90052 8.65744L0.943853 6.67944C0.70652 6.56011 0.561853 6.31144 0.57652 6.04611C0.59052 5.78077 0.761853 5.54877 1.01119 5.45744L13.6779 0.790772C13.9212 0.702106 14.1952 0.760106 14.3799 0.944772C14.5639 1.12811 14.6239 1.40277 14.5339 1.64677L9.86718 14.3134C9.77518 14.5628 9.54385 14.7341 9.27852 14.7481C9.26652 14.7488 9.25385 14.7494 9.24185 14.7494Z" fill="white"/>
</svg>
