<svg width="18" height="15" viewBox="0 0 18 15" fill="none" xmlns="http://www.w3.org/2000/svg">
<path d="M17.3676 2.3281C16.7444 2.59695 16.0661 2.79044 15.3676 2.86579C16.0929 2.4349 16.636 1.75416 16.8951 0.951296C16.2145 1.35617 15.4689 1.64007 14.6914 1.79042C14.3664 1.44301 13.9734 1.16625 13.5368 0.977381C13.1002 0.788513 12.6293 0.691585 12.1536 0.692635C10.229 0.692635 8.68108 2.25275 8.68108 4.16724C8.68108 4.43609 8.71366 4.70493 8.76662 4.96359C5.88469 4.81288 3.31438 3.43607 1.60559 1.32809C1.29423 1.8599 1.13106 2.46543 1.13307 3.08168C1.13307 4.28741 1.74612 5.35057 2.68096 5.97583C2.13004 5.95413 1.59203 5.80271 1.11067 5.53387V5.57664C1.11067 7.26506 2.30417 8.66427 3.89483 8.98607C3.59617 9.06365 3.28893 9.10334 2.98036 9.1042C2.75428 9.1042 2.54043 9.0818 2.32454 9.05125C2.76447 10.4281 4.04555 11.4281 5.57104 11.4607C4.37753 12.3955 2.8826 12.9454 1.25935 12.9454C0.968099 12.9454 0.699255 12.9352 0.420227 12.9026C1.95997 13.8904 3.78689 14.4607 5.75434 14.4607C12.1414 14.4607 15.6364 9.16937 15.6364 4.57662C15.6364 4.4259 15.6364 4.27519 15.6262 4.12447C16.3024 3.62955 16.8951 3.01651 17.3676 2.3281Z" fill="white" fill-opacity="0.8"/>
</svg>
