<svg width="14" height="17" viewBox="0 0 14 17" fill="none" xmlns="http://www.w3.org/2000/svg">
<path d="M0.515075 6.07676C0.515075 5.34406 0.643157 4.65185 0.895554 4.00579C1.1367 3.37828 1.49498 2.80235 1.95129 2.30869C2.40668 1.82152 2.9278 1.40025 3.49958 1.05707C4.08623 0.702158 4.72135 0.434405 5.38503 0.262203C6.05672 0.0858274 6.74836 -0.00312079 7.44282 -0.0024375C8.51551 -0.0024375 9.5138 0.224532 10.4396 0.676587C11.3533 1.1204 12.131 1.80149 12.6914 2.64868C13.2696 3.51041 13.5569 4.48515 13.5569 5.57197C13.5569 6.22368 13.4928 6.86127 13.3619 7.48473C13.2334 8.10784 13.0291 8.71288 12.7535 9.28636C12.4909 9.8415 12.1475 10.3547 11.7345 10.8092C11.3195 11.2565 10.8168 11.6136 10.2578 11.8584C9.65093 12.1243 8.99443 12.2582 8.33186 12.2511C7.87133 12.2511 7.41174 12.1428 6.9578 11.9252C6.50387 11.7086 6.17801 11.411 5.98212 11.0296C5.91337 11.2942 5.81919 11.6766 5.69393 12.1767C5.57339 12.6758 5.49239 12.9979 5.4566 13.1439C5.41893 13.2889 5.34924 13.531 5.24753 13.8662C5.17855 14.1143 5.09006 14.3564 4.98289 14.5905L4.65892 15.2252C4.51881 15.4976 4.36218 15.7612 4.18991 16.0144C4.01945 16.2612 3.80849 16.556 3.55703 16.895L3.4167 16.9449L3.32347 16.8432C3.2227 15.7762 3.1709 15.1376 3.1709 14.9267C3.1709 14.3023 3.2453 13.6016 3.39222 12.8237C3.53631 12.0467 3.76422 11.0701 4.0703 9.89569C4.37638 8.72223 4.55155 8.0319 4.59864 7.82754C4.38297 7.38772 4.27373 6.81324 4.27373 6.1069C4.27373 5.54277 4.44984 5.01443 4.80301 4.51717C5.15712 4.0218 5.60446 3.77411 6.14693 3.77411C6.56226 3.77411 6.88435 3.91161 7.11508 4.18755C7.34676 4.46255 7.45977 4.80913 7.45977 5.23199C7.45977 5.68027 7.31097 6.32916 7.01149 7.17771C6.712 8.02719 6.5632 8.66101 6.5632 9.08199C6.5632 9.50862 6.71577 9.86555 7.0209 10.1453C7.32203 10.4251 7.72026 10.5768 8.13126 10.5681C8.50421 10.5681 8.84984 10.4834 9.17099 10.3129C9.48712 10.1474 9.76076 9.91118 9.97056 9.62257C10.4275 8.99563 10.7533 8.28291 10.9284 7.52711C11.0188 7.12968 11.0885 6.75202 11.1318 6.39697C11.1779 6.04003 11.1977 5.70288 11.1977 5.38267C11.1977 4.20827 10.8248 3.29286 10.0836 2.63738C9.33863 1.9819 8.36859 1.65604 7.17536 1.65604C5.81825 1.65604 4.6834 2.09491 3.77458 2.97548C2.86482 3.85322 2.40711 4.96923 2.40711 6.32257C2.40711 6.62111 2.45232 6.9093 2.53802 7.18807C2.62184 7.46589 2.71319 7.68721 2.81208 7.85108C2.91003 8.01213 3.00232 8.1694 3.08614 8.31444C3.1709 8.45947 3.21516 8.56307 3.21516 8.62523C3.21516 8.81547 3.16525 9.06315 3.06448 9.36923C2.95994 9.67531 2.83657 9.82788 2.68777 9.82788C2.67364 9.82788 2.61525 9.81752 2.51354 9.79586C2.16127 9.69069 1.84315 9.4941 1.59153 9.22608C1.32448 8.94831 1.11372 8.62146 0.970897 8.26358C0.828479 7.90698 0.717553 7.53859 0.63939 7.16264C0.554942 6.80691 0.513209 6.44238 0.515075 6.07676V6.07676Z" fill="white" fill-opacity="0.8"/>
</svg>
