<svg width="17" height="17" viewBox="0 0 17 17" fill="none" xmlns="http://www.w3.org/2000/svg">
<path d="M8.66829 6.21074C7.19011 6.21074 5.98381 7.41704 5.98381 8.89522C5.98381 10.3734 7.19011 11.5797 8.66829 11.5797C10.1465 11.5797 11.3528 10.3734 11.3528 8.89522C11.3528 7.41704 10.1465 6.21074 8.66829 6.21074ZM16.7197 8.89522C16.7197 7.78356 16.7298 6.68198 16.6673 5.57234C16.6049 4.28347 16.3109 3.1396 15.3684 2.19711C14.4239 1.25261 13.282 0.960604 11.9932 0.898174C10.8815 0.835745 9.77994 0.845814 8.6703 0.845814C7.55865 0.845814 6.45707 0.835745 5.34743 0.898174C4.05856 0.960604 2.91469 1.25463 1.9722 2.19711C1.0277 3.14161 0.735689 4.28347 0.67326 5.57234C0.61083 6.684 0.620899 7.78558 0.620899 8.89522C0.620899 10.0049 0.61083 11.1084 0.67326 12.2181C0.735689 13.507 1.02971 14.6508 1.9722 15.5933C2.9167 16.5378 4.05856 16.8298 5.34743 16.8923C6.45908 16.9547 7.56066 16.9446 8.6703 16.9446C9.78195 16.9446 10.8835 16.9547 11.9932 16.8923C13.282 16.8298 14.4259 16.5358 15.3684 15.5933C16.3129 14.6488 16.6049 13.507 16.6673 12.2181C16.7318 11.1084 16.7197 10.0069 16.7197 8.89522ZM8.66829 13.0256C6.38255 13.0256 4.53786 11.1809 4.53786 8.89522C4.53786 6.60948 6.38255 4.76479 8.66829 4.76479C10.954 4.76479 12.7987 6.60948 12.7987 8.89522C12.7987 11.1809 10.954 13.0256 8.66829 13.0256ZM12.9679 5.56026C12.4342 5.56026 12.0032 5.1293 12.0032 4.59562C12.0032 4.06195 12.4342 3.63098 12.9679 3.63098C13.5016 3.63098 13.9325 4.06195 13.9325 4.59562C13.9327 4.72235 13.9078 4.84785 13.8594 4.96496C13.811 5.08207 13.7399 5.18847 13.6503 5.27808C13.5607 5.36769 13.4543 5.43874 13.3372 5.48716C13.2201 5.53558 13.0946 5.56042 12.9679 5.56026Z" fill="white" fill-opacity="0.8"/>
</svg>
