<svg width="74" height="74" viewBox="0 0 74 74" fill="none" xmlns="http://www.w3.org/2000/svg">
<rect width="74" height="74" rx="37" fill="url(#paint0_linear_19_9181)"/>
<g clip-path="url(#clip0_19_9181)">
<path d="M21.0645 51.6968H37V50.4708H21.0645C20.049 50.4708 19.2258 49.6475 19.2258 48.6321V21.6643C19.2258 20.6486 20.049 19.8256 21.0645 19.8256H48.0322C49.0481 19.8256 49.8709 20.6486 49.8709 21.6643V35.761H51.097V21.6643C51.095 19.9726 49.7241 18.6019 48.0322 18.5999H21.0645C19.3731 18.6019 18.0022 19.9726 18 21.6643V48.6321C18.0022 50.3237 19.3731 51.6945 21.0645 51.6968Z" fill="black"/>
<path d="M20.4512 21.0518H21.6768V22.2774H20.4512V21.0518Z" fill="black"/>
<path d="M22.9023 21.0518H24.1284V22.2774H22.9023V21.0518Z" fill="black"/>
<path d="M25.3555 21.0518H26.5814V22.2774H25.3555V21.0518Z" fill="black"/>
<path d="M20.4512 23.5029H48.6445V24.729H20.4512V23.5029Z" fill="black"/>
<path d="M26.7606 26.1343L25.2038 27.6911C23.8878 26.8199 22.1256 27.0872 21.1269 28.3094C20.1284 29.5315 20.218 31.3117 21.3339 32.4274C22.4496 33.5436 24.23 33.6332 25.4522 32.6345C26.6742 31.6359 26.9417 29.8734 26.0704 28.5578L27.627 27.001L26.7606 26.1343ZM23.5162 32.0836C22.5009 32.0836 21.6777 31.2605 21.6777 30.2451C21.6777 29.2295 22.5009 28.4065 23.5162 28.4065C23.7897 28.4074 24.0587 28.4701 24.304 28.5901L23.0832 29.8111L23.9496 30.6778L25.1714 29.4576C25.2913 29.7028 25.3542 29.9718 25.3551 30.2451C25.3551 31.2605 24.5321 32.0836 23.5162 32.0836Z" fill="black"/>
<path d="M28.4199 28.4065H38.839V29.6321H28.4199V28.4065Z" fill="black"/>
<path d="M28.4199 30.8579H32.7101V32.0835H28.4199V30.8579Z" fill="black"/>
<path d="M33.9355 30.8579H42.516V32.0835H33.9355V30.8579Z" fill="black"/>
<path d="M40.0645 28.4065H46.1935V29.6321H40.0645V28.4065Z" fill="black"/>
<path d="M26.7606 33.489L25.2038 35.0458C23.8878 34.1746 22.1256 34.4419 21.1269 35.6642C20.1284 36.8864 20.218 38.6664 21.3339 39.7825C22.4496 40.8984 24.23 40.9879 25.4522 39.9892C26.6742 38.9905 26.9417 37.2286 26.0704 35.9126L27.627 34.3558L26.7606 33.489ZM23.5162 39.4385C22.5009 39.4385 21.6777 38.6152 21.6777 37.5998C21.6777 36.5842 22.5009 35.7609 23.5162 35.7609C23.7897 35.762 24.0587 35.8248 24.304 35.9448L23.0832 37.1661L23.9496 38.0325L25.1714 36.8122C25.2913 37.0575 25.3542 37.3265 25.3551 37.5998C25.3551 38.6152 24.5321 39.4385 23.5162 39.4385Z" fill="black"/>
<path d="M28.4199 35.761H38.839V36.9869H28.4199V35.761Z" fill="black"/>
<path d="M28.4199 38.2129H32.7101V39.4386H28.4199V38.2129Z" fill="black"/>
<path d="M33.9355 38.2129H38.8385V39.4386H33.9355V38.2129Z" fill="black"/>
<path d="M40.0645 35.761H42.516V36.9869H40.0645V35.761Z" fill="black"/>
<path d="M26.7606 40.844L25.2038 42.4008C23.8878 41.5296 22.1256 41.7969 21.1269 43.0191C20.1284 44.2414 20.218 46.0214 21.3339 47.1374C22.4496 48.2535 24.23 48.3428 25.4522 47.3442C26.6742 46.3455 26.9417 44.5835 26.0704 43.2674L27.627 41.7107L26.7606 40.844ZM23.5162 46.7935C22.5009 46.7935 21.6777 45.9702 21.6777 44.9548C21.6777 43.9392 22.5009 43.1161 23.5162 43.1161C23.7897 43.117 24.0587 43.1797 24.304 43.2998L23.0832 44.5211L23.9496 45.3875L25.1714 44.1672C25.2913 44.4125 25.3542 44.6816 25.3551 44.9548C25.3551 45.9702 24.5321 46.7935 23.5162 46.7935Z" fill="black"/>
<path d="M28.4199 43.116H36.3875V44.342H28.4199V43.116Z" fill="black"/>
<path d="M28.4199 45.5676H32.7101V46.7934H28.4199V45.5676Z" fill="black"/>
<path d="M33.9355 45.5676H36.387V46.7934H33.9355V45.5676Z" fill="black"/>
<path d="M46.807 55.3741C51.8846 55.3741 56.0003 51.2577 56.0003 46.1805C56.0003 41.1028 51.8846 36.9868 46.807 36.9868C41.7293 36.9868 37.6133 41.1028 37.6133 46.1805C37.6193 51.2554 41.7317 55.368 46.807 55.3741ZM46.807 38.2127C51.2072 38.2127 54.7747 41.78 54.7747 46.1805C54.7747 50.581 51.2072 54.1481 46.807 54.1481C42.4063 54.1481 38.8389 50.581 38.8389 46.1805C38.8441 41.7821 42.4083 38.2176 46.807 38.2127Z" fill="black"/>
<path d="M43.0679 46.5193L41.9707 47.0671L43.1966 49.5187C43.2845 49.6951 43.4522 49.8184 43.6469 49.8499C43.6785 49.8549 43.7102 49.8575 43.742 49.8579C43.9043 49.8579 44.0603 49.7932 44.1755 49.6783L51.53 42.3235L50.6636 41.4568L43.9097 48.2103L43.0679 46.5193Z" fill="black"/>
<g clip-path="url(#clip1_19_9181)">
<path d="M21.0645 51.6968H37V50.4708H21.0645C20.049 50.4708 19.2258 49.6475 19.2258 48.6321V21.6643C19.2258 20.6486 20.049 19.8256 21.0645 19.8256H48.0322C49.0481 19.8256 49.8709 20.6486 49.8709 21.6643V35.761H51.097V21.6643C51.095 19.9726 49.7241 18.6019 48.0322 18.5999H21.0645C19.3731 18.6019 18.0022 19.9726 18 21.6643V48.6321C18.0022 50.3237 19.3731 51.6945 21.0645 51.6968Z" fill="white"/>
<path d="M20.4512 21.0518H21.6768V22.2774H20.4512V21.0518Z" fill="white"/>
<path d="M22.9023 21.0518H24.1284V22.2774H22.9023V21.0518Z" fill="white"/>
<path d="M25.3555 21.0518H26.5814V22.2774H25.3555V21.0518Z" fill="white"/>
<path d="M20.4512 23.5029H48.6445V24.729H20.4512V23.5029Z" fill="white"/>
<path d="M26.7606 26.1343L25.2038 27.6911C23.8878 26.8199 22.1256 27.0872 21.1269 28.3094C20.1284 29.5315 20.218 31.3117 21.3339 32.4274C22.4496 33.5436 24.23 33.6332 25.4522 32.6345C26.6742 31.6359 26.9417 29.8734 26.0704 28.5578L27.627 27.001L26.7606 26.1343ZM23.5162 32.0836C22.5009 32.0836 21.6777 31.2605 21.6777 30.2451C21.6777 29.2295 22.5009 28.4065 23.5162 28.4065C23.7897 28.4074 24.0587 28.4701 24.304 28.5901L23.0832 29.8111L23.9496 30.6778L25.1714 29.4576C25.2913 29.7028 25.3542 29.9718 25.3551 30.2451C25.3551 31.2605 24.5321 32.0836 23.5162 32.0836Z" fill="white"/>
<path d="M28.4199 28.4065H38.839V29.6321H28.4199V28.4065Z" fill="white"/>
<path d="M28.4199 30.8579H32.7101V32.0835H28.4199V30.8579Z" fill="white"/>
<path d="M33.9355 30.8579H42.516V32.0835H33.9355V30.8579Z" fill="white"/>
<path d="M40.0645 28.4065H46.1935V29.6321H40.0645V28.4065Z" fill="white"/>
<path d="M26.7606 33.489L25.2038 35.0458C23.8878 34.1746 22.1256 34.4419 21.1269 35.6642C20.1284 36.8864 20.218 38.6664 21.3339 39.7825C22.4496 40.8984 24.23 40.9879 25.4522 39.9892C26.6742 38.9905 26.9417 37.2286 26.0704 35.9126L27.627 34.3558L26.7606 33.489ZM23.5162 39.4385C22.5009 39.4385 21.6777 38.6152 21.6777 37.5998C21.6777 36.5842 22.5009 35.7609 23.5162 35.7609C23.7897 35.762 24.0587 35.8248 24.304 35.9448L23.0832 37.1661L23.9496 38.0325L25.1714 36.8122C25.2913 37.0575 25.3542 37.3265 25.3551 37.5998C25.3551 38.6152 24.5321 39.4385 23.5162 39.4385Z" fill="white"/>
<path d="M28.4199 35.761H38.839V36.9869H28.4199V35.761Z" fill="white"/>
<path d="M28.4199 38.2129H32.7101V39.4386H28.4199V38.2129Z" fill="white"/>
<path d="M33.9355 38.2129H38.8385V39.4386H33.9355V38.2129Z" fill="white"/>
<path d="M40.0645 35.761H42.516V36.9869H40.0645V35.761Z" fill="white"/>
<path d="M26.7606 40.844L25.2038 42.4008C23.8878 41.5296 22.1256 41.7969 21.1269 43.0191C20.1284 44.2414 20.218 46.0214 21.3339 47.1374C22.4496 48.2535 24.23 48.3428 25.4522 47.3442C26.6742 46.3455 26.9417 44.5835 26.0704 43.2674L27.627 41.7107L26.7606 40.844ZM23.5162 46.7935C22.5009 46.7935 21.6777 45.9702 21.6777 44.9548C21.6777 43.9392 22.5009 43.1161 23.5162 43.1161C23.7897 43.117 24.0587 43.1797 24.304 43.2998L23.0832 44.5211L23.9496 45.3875L25.1714 44.1672C25.2913 44.4125 25.3542 44.6816 25.3551 44.9548C25.3551 45.9702 24.5321 46.7935 23.5162 46.7935Z" fill="white"/>
<path d="M28.4199 43.116H36.3875V44.342H28.4199V43.116Z" fill="white"/>
<path d="M28.4199 45.5676H32.7101V46.7934H28.4199V45.5676Z" fill="white"/>
<path d="M33.9355 45.5676H36.387V46.7934H33.9355V45.5676Z" fill="white"/>
<path d="M46.807 55.3741C51.8846 55.3741 56.0003 51.2577 56.0003 46.1805C56.0003 41.1028 51.8846 36.9868 46.807 36.9868C41.7293 36.9868 37.6133 41.1028 37.6133 46.1805C37.6193 51.2554 41.7317 55.368 46.807 55.3741ZM46.807 38.2127C51.2072 38.2127 54.7747 41.78 54.7747 46.1805C54.7747 50.581 51.2072 54.1481 46.807 54.1481C42.4063 54.1481 38.8389 50.581 38.8389 46.1805C38.8441 41.7821 42.4083 38.2176 46.807 38.2127Z" fill="white"/>
<path d="M43.0679 46.5193L41.9707 47.0671L43.1966 49.5187C43.2845 49.6951 43.4522 49.8184 43.6469 49.8499C43.6785 49.8549 43.7102 49.8575 43.742 49.8579C43.9043 49.8579 44.0603 49.7932 44.1755 49.6783L51.53 42.3235L50.6636 41.4568L43.9097 48.2103L43.0679 46.5193Z" fill="white"/>
</g>
</g>
<defs>
<linearGradient id="paint0_linear_19_9181" x1="37" y1="0" x2="37" y2="74" gradientUnits="userSpaceOnUse">
<stop stop-color="#8A7FD9"/>
<stop offset="1" stop-color="#402F8F"/>
</linearGradient>
<clipPath id="clip0_19_9181">
<rect width="38" height="38" fill="white" transform="translate(18 18)"/>
</clipPath>
<clipPath id="clip1_19_9181">
<rect width="38" height="38" fill="white" transform="translate(18 18)"/>
</clipPath>
</defs>
</svg>
