<svg width="74" height="74" viewBox="0 0 74 74" fill="none" xmlns="http://www.w3.org/2000/svg">
<rect width="74" height="74" rx="37" fill="url(#paint0_linear_19_9182)"/>
<g clip-path="url(#clip0_19_9182)">
<path d="M41.6856 51.7217C42.6544 51.7217 43.4428 50.9333 43.4428 49.9644C43.4428 48.9956 42.6544 48.2072 41.6856 48.2072C40.923 48.2072 40.2787 48.6987 40.0362 49.3787H37.5854V45.8643H40.0362C40.2787 46.5443 40.923 47.0358 41.6856 47.0358C42.6544 47.0358 43.4428 46.2473 43.4428 45.2785C43.4428 44.3097 42.6544 43.5213 41.6856 43.5213C40.923 43.5213 40.2787 44.0128 40.0362 44.6928H37.5854V41.1784H40.0362C40.2787 41.8584 40.923 42.3498 41.6856 42.3498C42.6544 42.3498 43.4428 41.5614 43.4428 40.5926C43.4428 39.6238 42.6544 38.8354 41.6856 38.8354C40.923 38.8354 40.2787 39.3268 40.0362 40.0069H37.5854V38.8354H36.414V36.3847C37.094 36.1422 37.5854 35.4979 37.5854 34.7352C37.5854 33.7664 36.797 32.978 35.8282 32.978C34.8594 32.978 34.071 33.7664 34.071 34.7352C34.071 35.4979 34.5624 36.1422 35.2425 36.3847V38.8354H31.728V36.3847C32.4081 36.1422 32.8995 35.4979 32.8995 34.7352C32.8995 33.7664 32.1111 32.978 31.1423 32.978C30.1735 32.978 29.3851 33.7664 29.3851 34.7352C29.3851 35.4979 29.8765 36.1422 30.5566 36.3847V38.8354H27.0421V36.3847C27.7222 36.1422 28.2136 35.4979 28.2136 34.7352C28.2136 33.7664 27.4252 32.978 26.4564 32.978C25.4876 32.978 24.6992 33.7664 24.6992 34.7352C24.6992 35.4979 25.1906 36.1422 25.8707 36.3847V38.8354H24.6992V40.0069H22.2485C22.006 39.3268 21.3616 38.8354 20.599 38.8354C19.6302 38.8354 18.8418 39.6238 18.8418 40.5926C18.8418 41.5614 19.6302 42.3498 20.599 42.3498C21.3616 42.3498 22.006 41.8584 22.2485 41.1784H24.6992V44.6928H22.2485C22.006 44.0128 21.3616 43.5213 20.599 43.5213C19.6302 43.5213 18.8418 44.3097 18.8418 45.2785C18.8418 46.2473 19.6302 47.0358 20.599 47.0358C21.3616 47.0358 22.006 46.5443 22.2485 45.8643H24.6992V49.3787H22.2485C22.006 48.6987 21.3616 48.2072 20.599 48.2072C19.6302 48.2072 18.8418 48.9956 18.8418 49.9644C18.8418 50.9333 19.6302 51.7217 20.599 51.7217C21.3616 51.7217 22.006 51.2302 22.2485 50.5502H24.6992V51.7217H25.8707V54.1724C25.1906 54.4149 24.6992 55.0592 24.6992 55.8218C24.6992 56.7906 25.4876 57.579 26.4564 57.579C27.4252 57.579 28.2136 56.7906 28.2136 55.8218C28.2136 55.0592 27.7222 54.4149 27.0421 54.1724V51.7217H30.5566V54.1724C29.8765 54.4149 29.3851 55.0592 29.3851 55.8218C29.3851 56.7906 30.1735 57.579 31.1423 57.579C32.1111 57.579 32.8995 56.7906 32.8995 55.8218C32.8995 55.0592 32.4081 54.4149 31.728 54.1724V51.7217H35.2425V54.1724C34.5624 54.4149 34.071 55.0592 34.071 55.8218C34.071 56.7906 34.8594 57.579 35.8282 57.579C36.797 57.579 37.5854 56.7906 37.5854 55.8218C37.5854 55.0592 37.094 54.4149 36.414 54.1724V51.7217H37.5854V50.5502H40.0362C40.2787 51.2302 40.923 51.7217 41.6856 51.7217ZM41.6856 49.3787C42.0089 49.3787 42.2713 49.6411 42.2713 49.9644C42.2713 50.2878 42.0089 50.5502 41.6856 50.5502C41.3623 50.5502 41.0999 50.2878 41.0999 49.9644C41.0999 49.6411 41.3623 49.3787 41.6856 49.3787ZM41.6856 44.6928C42.0089 44.6928 42.2713 44.9552 42.2713 45.2785C42.2713 45.6019 42.0089 45.8643 41.6856 45.8643C41.3623 45.8643 41.0999 45.6019 41.0999 45.2785C41.0999 44.9552 41.3623 44.6928 41.6856 44.6928ZM41.6856 40.0069C42.0089 40.0069 42.2713 40.2693 42.2713 40.5926C42.2713 40.916 42.0089 41.1784 41.6856 41.1784C41.3623 41.1784 41.0999 40.916 41.0999 40.5926C41.0999 40.2693 41.3623 40.0069 41.6856 40.0069ZM20.599 41.1784C20.2757 41.1784 20.0133 40.916 20.0133 40.5926C20.0133 40.2693 20.2757 40.0069 20.599 40.0069C20.9223 40.0069 21.1848 40.2693 21.1848 40.5926C21.1848 40.916 20.9223 41.1784 20.599 41.1784ZM20.599 45.8643C20.2757 45.8643 20.0133 45.6019 20.0133 45.2785C20.0133 44.9552 20.2757 44.6928 20.599 44.6928C20.9223 44.6928 21.1848 44.9552 21.1848 45.2785C21.1848 45.6019 20.9223 45.8643 20.599 45.8643ZM20.599 50.5502C20.2757 50.5502 20.0133 50.2878 20.0133 49.9644C20.0133 49.6411 20.2757 49.3787 20.599 49.3787C20.9223 49.3787 21.1848 49.6411 21.1848 49.9644C21.1848 50.2878 20.9223 50.5502 20.599 50.5502ZM35.8282 34.1495C36.1515 34.1495 36.414 34.4125 36.414 34.7352C36.414 35.058 36.1515 35.321 35.8282 35.321C35.5049 35.321 35.2425 35.058 35.2425 34.7352C35.2425 34.4125 35.5049 34.1495 35.8282 34.1495ZM31.1423 34.1495C31.4656 34.1495 31.728 34.4125 31.728 34.7352C31.728 35.058 31.4656 35.321 31.1423 35.321C30.819 35.321 30.5566 35.058 30.5566 34.7352C30.5566 34.4125 30.819 34.1495 31.1423 34.1495ZM26.4564 34.1495C26.7797 34.1495 27.0421 34.4125 27.0421 34.7352C27.0421 35.058 26.7797 35.321 26.4564 35.321C26.1331 35.321 25.8707 35.058 25.8707 34.7352C25.8707 34.4125 26.1331 34.1495 26.4564 34.1495ZM26.4564 56.4076C26.1331 56.4076 25.8707 56.1452 25.8707 55.8218C25.8707 55.4985 26.1331 55.2361 26.4564 55.2361C26.7797 55.2361 27.0421 55.4985 27.0421 55.8218C27.0421 56.1452 26.7797 56.4076 26.4564 56.4076ZM31.1423 56.4076C30.819 56.4076 30.5566 56.1452 30.5566 55.8218C30.5566 55.4985 30.819 55.2361 31.1423 55.2361C31.4656 55.2361 31.728 55.4985 31.728 55.8218C31.728 56.1452 31.4656 56.4076 31.1423 56.4076ZM35.8282 56.4076C35.5049 56.4076 35.2425 56.1452 35.2425 55.8218C35.2425 55.4985 35.5049 55.2361 35.8282 55.2361C36.1515 55.2361 36.414 55.4985 36.414 55.8218C36.414 56.1452 36.1515 56.4076 35.8282 56.4076ZM36.414 50.5502H25.8707V40.0069H36.414V50.5502Z" fill="white"/>
<path d="M52.5195 30.6344V30.635C52.301 29.788 51.9648 28.9785 51.5155 28.2194L53.3835 26.3509L50.0699 23.038L48.2014 24.9065C47.4423 24.4566 46.6334 24.1204 45.7864 23.9019V21.2632H41.1005V23.9019C40.2536 24.1204 39.4446 24.4566 38.6855 24.9059L36.817 23.0374L33.5035 26.3503L35.3714 28.2188C34.9222 28.9779 34.5859 29.7874 34.3675 30.6344H32.3145V31.8059H35.3123L35.4077 31.3367C35.6157 30.3111 36.0181 29.3429 36.6038 28.4578L36.868 28.0589L35.1594 26.3503L36.8164 24.6939L38.525 26.4025L38.9239 26.1383C39.8084 25.5525 40.7766 25.1501 41.8028 24.9422L42.272 24.8473V22.4347H44.615V24.8473L45.0841 24.9428C46.1104 25.1507 47.0786 25.5531 47.963 26.1389L48.3619 26.403L50.0705 24.6944L51.7276 26.3509L50.019 28.0595L50.2832 28.4584C50.8689 29.3434 51.2713 30.3117 51.4792 31.3373L51.5747 31.8065H53.9868V34.1494H51.5747L51.4792 34.6186C51.2713 35.6442 50.8689 36.6125 50.2832 37.4969L50.019 37.8964L51.7276 39.605L50.0705 41.2621L48.3619 39.5535L47.963 39.8176C47.078 40.4034 46.1098 40.8064 45.0841 41.0137L44.615 41.1092V44.107H45.7864V42.054C46.6328 41.8361 47.4423 41.4999 48.2014 41.05L50.0699 42.9179L53.3835 39.6044L51.5155 37.7359C51.9648 36.9768 52.301 36.1673 52.5195 35.3203H55.1583V30.6344H52.5195Z" fill="white"/>
<path d="M43.4433 37.6639V38.8354C46.6731 38.8354 49.3007 36.2078 49.3007 32.978C49.3007 29.7482 46.6731 27.1206 43.4433 27.1206C40.2136 27.1206 37.5859 29.7482 37.5859 32.978H38.7574C38.7574 30.3943 40.8596 28.2921 43.4433 28.2921C46.027 28.2921 48.1292 30.3943 48.1292 32.978C48.1292 35.5617 46.027 37.6639 43.4433 37.6639Z" fill="white"/>
<path d="M35.2433 41.1782H27.043V42.3497H35.2433V41.1782Z" fill="white"/>
<path d="M35.2418 48.207H34.0703V49.3785H35.2418V48.207Z" fill="white"/>
<path d="M32.9004 48.207H27.043V49.3785H32.9004V48.207Z" fill="white"/>
<path d="M40.3965 56.0665L40.6296 57.2151C47.7815 55.7631 53.3407 50.2038 54.7928 43.052L53.6441 42.8188C52.287 49.5092 47.0868 54.7093 40.3965 56.0665Z" fill="white"/>
<path d="M33.6014 22.775L33.3682 21.627C26.2164 23.079 20.6571 28.6382 19.2051 35.7901L20.3537 36.0227C21.7109 29.3335 26.9111 24.1327 33.6014 22.775Z" fill="white"/>
</g>
<defs>
<linearGradient id="paint0_linear_19_9182" x1="37" y1="0" x2="37" y2="74" gradientUnits="userSpaceOnUse">
<stop stop-color="#92EFC3"/>
<stop offset="1" stop-color="#2F8F5B"/>
</linearGradient>
<clipPath id="clip0_19_9182">
<rect width="36.3158" height="36.3158" fill="white" transform="translate(18.8418 21.2632)"/>
</clipPath>
</defs>
</svg>
