<svg width="74" height="74" viewBox="0 0 74 74" fill="none" xmlns="http://www.w3.org/2000/svg">
<rect width="74" height="74" rx="37" fill="url(#paint0_linear_9_8713)"/>
<g clip-path="url(#clip0_9_8713)">
<path d="M50.8255 18.002C47.6236 18.002 45.0938 20.6966 45.0938 24.0546C45.0938 27.4126 47.6632 30.0658 50.8255 30.0658C53.9879 30.0658 56.5968 27.3711 56.5968 24.0132C56.5968 20.6552 54.0274 18.002 50.8255 18.002ZM50.8255 28.7392C48.3352 28.7392 46.3192 26.6249 46.3192 24.0132C46.3192 21.4014 48.3747 19.3286 50.8255 19.3286C53.3159 19.3286 55.3319 21.4428 55.3319 24.0546C55.3319 26.6664 53.3159 28.7392 50.8255 28.7392Z" fill="white"/>
<path d="M52.643 24.9666C52.6035 24.8423 52.6035 24.7593 52.5244 24.635C52.4849 24.5521 52.4454 24.4277 52.3663 24.3448C52.2873 24.2619 52.2477 24.179 52.1687 24.096C52.0896 24.0131 52.0106 23.9302 51.892 23.8888C51.8129 23.8058 51.6943 23.7644 51.6153 23.7229C51.4967 23.6815 51.4176 23.5986 51.299 23.5571C51.1804 23.5157 51.0619 23.4742 50.9828 23.4327C50.9433 23.4327 50.8642 23.3913 50.8247 23.3498C50.7851 23.3084 50.7061 23.3084 50.6666 23.2669C50.627 23.2255 50.548 23.2255 50.5084 23.184C50.4689 23.1425 50.4294 23.1011 50.3899 23.0596C50.3503 23.0182 50.3108 22.9767 50.3108 22.8938C50.2713 22.8523 50.2713 22.7694 50.2713 22.728C50.2713 22.6451 50.2713 22.6036 50.2713 22.5207C50.2713 22.4792 50.3108 22.3963 50.3108 22.3549C50.3503 22.3134 50.3503 22.2305 50.3899 22.189C50.4294 22.1476 50.4689 22.1061 50.5084 22.0647C50.548 22.0232 50.627 21.9818 50.7061 21.9818C50.7851 21.9403 50.8247 21.9403 50.9037 21.9403C50.9433 21.9403 50.9828 21.9403 51.0223 21.9403C51.0619 21.9403 51.1014 21.9403 51.1409 21.9403C51.22 21.9403 51.2595 21.9403 51.3386 21.9818C51.4176 21.9818 51.4967 22.0232 51.5362 22.0232C51.5757 22.0232 51.6548 22.0647 51.6943 22.0647C51.7734 22.0647 51.8129 22.1061 51.8524 22.1061L52.0501 22.189L52.0896 21.9403L52.1687 21.277V21.1112L52.0106 21.0697C51.971 21.0697 51.892 21.0283 51.8524 21.0283C51.8129 21.0283 51.7734 20.9868 51.6943 20.9868C51.6548 20.9868 51.5757 20.9453 51.4967 20.9453C51.4176 20.9453 51.3781 20.9039 51.299 20.9039H51.2595V20.3235V20.1162H51.0619H50.5084H50.3108V20.3235V20.9453H50.2713C50.1527 20.9868 50.0341 21.0283 49.9155 21.1112C49.7969 21.1526 49.7179 21.2355 49.6388 21.3185C49.5597 21.4014 49.4807 21.4843 49.4016 21.6086C49.3226 21.6916 49.283 21.8159 49.2435 21.9403C49.204 22.0647 49.1644 22.189 49.1249 22.3134C49.0854 22.4378 49.0854 22.6036 49.0854 22.728C49.0854 22.8523 49.0854 22.9353 49.1249 23.0596C49.1644 23.184 49.1644 23.2669 49.2435 23.3913C49.283 23.4742 49.3621 23.5986 49.4016 23.6815C49.4807 23.7644 49.5202 23.8473 49.5993 23.9302C49.6783 24.0131 49.7574 24.096 49.876 24.1375C49.955 24.2204 50.0736 24.2619 50.1527 24.3033C50.2713 24.3448 50.3899 24.4277 50.4689 24.4692C50.5875 24.5106 50.7061 24.5521 50.7851 24.5935C50.8247 24.5935 50.9037 24.635 50.9433 24.6764C50.9828 24.7179 51.0619 24.7179 51.1014 24.7593C51.1409 24.8008 51.1804 24.8423 51.22 24.8423C51.2595 24.8837 51.299 24.9252 51.3386 24.9666C51.3781 25.0081 51.3781 25.0495 51.4176 25.1325C51.4176 25.1739 51.4571 25.2568 51.4571 25.3397C51.4571 25.4227 51.4571 25.4641 51.4571 25.547C51.4571 25.5885 51.4176 25.6714 51.3781 25.7129C51.3386 25.7543 51.299 25.7958 51.2595 25.8372C51.22 25.8787 51.1804 25.9201 51.1014 25.9616C51.0619 26.003 50.9828 26.003 50.9433 26.0445C50.9037 26.0445 50.8247 26.086 50.7456 26.086C50.7061 26.086 50.6666 26.086 50.5875 26.086C50.548 26.086 50.4689 26.086 50.4294 26.086C50.3503 26.086 50.2713 26.086 50.2317 26.086C50.1527 26.086 50.0736 26.0445 50.0341 26.0445C49.955 26.0445 49.876 26.003 49.7969 25.9616C49.7179 25.9201 49.6388 25.9201 49.5597 25.8787C49.5202 25.8787 49.4807 25.8372 49.4411 25.8372C49.4016 25.8372 49.3621 25.7958 49.3226 25.7958L49.0854 25.6714L49.0459 25.9616L48.9668 26.7078V26.8322L49.0854 26.8736C49.2435 26.8322 49.3226 26.8736 49.4411 26.9151C49.5202 26.9565 49.6388 26.998 49.7179 26.998C49.7969 27.0395 49.9155 27.0395 50.0341 27.0809C50.1527 27.1224 50.2317 27.1224 50.3503 27.1224H50.4294V27.7442V27.9515H50.627H51.1804H51.3781V27.7442V27.0809H51.4176C51.5362 27.0395 51.6548 26.998 51.7734 26.9151C51.892 26.8736 51.971 26.7907 52.0896 26.7078C52.1687 26.6249 52.2477 26.542 52.3268 26.4176C52.4059 26.3347 52.4454 26.2103 52.5244 26.086C52.564 25.9616 52.6035 25.8372 52.643 25.7129C52.6826 25.5885 52.6826 25.4641 52.6826 25.2983C52.6826 25.1739 52.6826 25.091 52.643 24.9666Z" fill="white"/>
<path d="M48.0576 30.8535C47.86 30.5633 47.4251 30.5219 47.1484 30.7292L40.7447 36.0771L32.483 32.4703C32.2854 32.3874 32.0482 32.4289 31.8901 32.5533L23.0355 39.1863C22.7588 39.3936 22.6797 39.8082 22.8774 40.0984C22.996 40.3056 23.1936 40.3885 23.3913 40.3885C23.5098 40.3885 23.6284 40.3471 23.747 40.2642L32.3249 33.8384L40.6261 37.4451C40.8237 37.528 41.1004 37.4866 41.2585 37.3622L47.939 31.807C48.2157 31.5997 48.2553 31.1437 48.0576 30.8535Z" fill="white"/>
<path d="M57.3082 53.5718H54.3831V34.3774C54.3831 34.0043 54.1064 33.7141 53.7506 33.7141H47.9398C47.584 33.7141 47.3073 34.0043 47.3073 34.3774V53.5718H45.1727V41.0105C45.1727 40.6374 44.896 40.3472 44.5402 40.3472H38.6899C38.3341 40.3472 38.0574 40.6374 38.0574 41.0105V53.5718H35.9228V40.0155C35.9228 39.6424 35.6461 39.3522 35.2904 39.3522H29.4795C29.1238 39.3522 28.8471 39.6424 28.8471 40.0155V53.5718H26.7125V43.9124C26.7125 43.5393 26.4358 43.2491 26.08 43.2491H20.2296C19.8739 43.2491 19.5972 43.5393 19.5972 43.9124V53.5718H16.6325C16.2767 53.5718 16 53.862 16 54.2351C16 54.6082 16.2767 54.8984 16.6325 54.8984H20.1901H26.0009H29.4795H35.2904H38.6899H44.5007H47.9002H53.7111H57.2687C57.6245 54.8984 57.9012 54.6082 57.9012 54.2351C57.9407 53.862 57.664 53.5718 57.3082 53.5718ZM25.408 53.5718H20.8621V44.5757H25.408V53.5718ZM34.6579 53.5718H30.112V40.6788H34.6579V53.5718ZM43.8682 53.5718H39.3224V41.6738H43.8682V53.5718ZM53.1181 53.5718H48.5722V35.0407H53.1181V53.5718Z" fill="white"/>
</g>
<defs>
<linearGradient id="paint0_linear_9_8713" x1="37" y1="0" x2="37" y2="74" gradientUnits="userSpaceOnUse">
<stop stop-color="#D97F95"/>
<stop offset="1" stop-color="#923250"/>
</linearGradient>
<clipPath id="clip0_9_8713">
<rect width="42" height="37" fill="white" transform="translate(16 18)"/>
</clipPath>
</defs>
</svg>
