<svg width="74" height="74" viewBox="0 0 74 74" fill="none" xmlns="http://www.w3.org/2000/svg">
<rect width="74" height="74" rx="37" fill="url(#paint0_linear_9_8674)"/>
<path d="M36.9986 48.3773C34.5506 48.3773 32.1575 47.6514 30.122 46.2914C28.0866 44.9313 26.5001 42.9982 25.5633 40.7365C24.6265 38.4748 24.3813 35.9861 24.8589 33.5851C25.3365 31.1841 26.5154 28.9786 28.2464 27.2476C29.9774 25.5166 32.1829 24.3377 34.5839 23.8602C36.9849 23.3826 39.4736 23.6277 41.7353 24.5645C43.997 25.5013 45.9301 27.0878 47.2901 29.1233C48.6502 31.1587 49.3761 33.5518 49.3761 35.9998C49.3724 39.2814 48.0671 42.4275 45.7467 44.7479C43.4263 47.0683 40.2802 48.3736 36.9986 48.3773V48.3773ZM36.9986 24.7575C34.7751 24.7575 32.6015 25.4168 30.7527 26.6521C28.9039 27.8875 27.4629 29.6433 26.612 31.6976C25.7611 33.7518 25.5385 36.0123 25.9723 38.1931C26.406 40.3739 27.4768 42.3771 29.0491 43.9494C30.6213 45.5217 32.6245 46.5924 34.8053 47.0262C36.9861 47.46 39.2466 47.2373 41.3009 46.3864C43.3552 45.5355 45.111 44.0946 46.3463 42.2458C47.5816 40.397 48.241 38.2234 48.241 35.9998C48.2375 33.0192 47.052 30.1617 44.9444 28.0541C42.8368 25.9465 39.9792 24.7609 36.9986 24.7575Z" fill="white"/>
<path d="M36.999 45.4443C35.1311 45.4443 33.3051 44.8904 31.752 43.8527C30.1989 42.8149 28.9884 41.3399 28.2736 39.6142C27.5588 37.8885 27.3718 35.9895 27.7362 34.1575C28.1006 32.3255 29.0001 30.6427 30.3209 29.3218C31.6417 28.001 33.3245 27.1016 35.1565 26.7371C36.9885 26.3727 38.8875 26.5598 40.6132 27.2746C42.3389 27.9894 43.8139 29.1999 44.8517 30.753C45.8895 32.3061 46.4434 34.1321 46.4434 36C46.4405 38.5039 45.4446 40.9045 43.674 42.675C41.9035 44.4455 39.5029 45.4415 36.999 45.4443V45.4443ZM36.999 27.6908C35.3556 27.6908 33.7491 28.1781 32.3827 29.0912C31.0162 30.0042 29.9512 31.3019 29.3223 32.8202C28.6934 34.3385 28.5289 36.0092 28.8495 37.621C29.1701 39.2329 29.9615 40.7134 31.1235 41.8755C32.2856 43.0375 33.7662 43.8289 35.378 44.1495C36.9898 44.4701 38.6605 44.3056 40.1788 43.6767C41.6971 43.0478 42.9948 41.9828 43.9079 40.6163C44.8209 39.2499 45.3082 37.6434 45.3082 36C45.3057 33.797 44.4294 31.6851 42.8717 30.1273C41.314 28.5696 39.202 27.6934 36.999 27.6908V27.6908Z" fill="white"/>
<path d="M37.9444 36.1815H35.0578C34.9073 36.1815 34.7629 36.1217 34.6565 36.0153C34.55 35.9089 34.4902 35.7645 34.4902 35.614V30.9741C34.4902 30.8236 34.55 30.6792 34.6565 30.5728C34.7629 30.4663 34.9073 30.4065 35.0578 30.4065H37.9444C38.327 30.4012 38.7069 30.4719 39.0619 30.6146C39.4169 30.7573 39.7401 30.9691 40.0125 31.2378C40.285 31.5065 40.5013 31.8266 40.649 32.1796C40.7967 32.5326 40.8727 32.9114 40.8727 33.294C40.8727 33.6767 40.7967 34.0555 40.649 34.4085C40.5013 34.7615 40.285 35.0816 40.0125 35.3503C39.7401 35.6189 39.4169 35.8308 39.0619 35.9735C38.7069 36.1162 38.327 36.1869 37.9444 36.1815V36.1815ZM35.6254 35.0464H37.9444C38.1772 35.0506 38.4085 35.0084 38.6248 34.9222C38.841 34.836 39.038 34.7076 39.2041 34.5444C39.3702 34.3813 39.5021 34.1867 39.5922 33.972C39.6822 33.7573 39.7286 33.5268 39.7286 33.294C39.7286 33.0612 39.6822 32.8307 39.5922 32.616C39.5021 32.4014 39.3702 32.2068 39.2041 32.0436C39.038 31.8805 38.841 31.7521 38.6248 31.6659C38.4085 31.5797 38.1772 31.5375 37.9444 31.5417H35.6254V35.0464Z" fill="white"/>
<path d="M38.6817 40.8242H35.0578C34.9073 40.8242 34.7629 40.7644 34.6565 40.658C34.55 40.5515 34.4902 40.4072 34.4902 40.2567V35.614C34.4902 35.4634 34.55 35.3191 34.6565 35.2126C34.7629 35.1062 34.9073 35.0464 35.0578 35.0464H38.6817C39.4476 35.0464 40.1821 35.3506 40.7237 35.8922C41.2652 36.4338 41.5695 37.1683 41.5695 37.9342C41.5695 38.7001 41.2652 39.4346 40.7237 39.9761C40.1821 40.5177 39.4476 40.822 38.6817 40.822V40.8242ZM35.6254 39.6891H38.6817C39.1465 39.6891 39.5923 39.5044 39.921 39.1757C40.2497 38.8471 40.4344 38.4013 40.4344 37.9364C40.4344 37.4716 40.2497 37.0258 39.921 36.6971C39.5923 36.3684 39.1465 36.1838 38.6817 36.1838H35.6254V39.6891Z" fill="white"/>
<path d="M35.0583 31.5416H34.2297C34.0791 31.5416 33.9348 31.4818 33.8283 31.3754C33.7219 31.2689 33.6621 31.1246 33.6621 30.9741C33.6621 30.8235 33.7219 30.6792 33.8283 30.5727C33.9348 30.4663 34.0791 30.4065 34.2297 30.4065H35.0583C35.2089 30.4065 35.3532 30.4663 35.4597 30.5727C35.5661 30.6792 35.6259 30.8235 35.6259 30.9741C35.6259 31.1246 35.5661 31.2689 35.4597 31.3754C35.3532 31.4818 35.2089 31.5416 35.0583 31.5416Z" fill="white"/>
<path d="M35.5246 31.5415C35.3741 31.5415 35.2297 31.4817 35.1233 31.3753C35.0168 31.2688 34.957 31.1245 34.957 30.974V29.9296C34.957 29.7791 35.0168 29.6347 35.1233 29.5283C35.2297 29.4219 35.3741 29.3621 35.5246 29.3621C35.6751 29.3621 35.8195 29.4219 35.9259 29.5283C36.0324 29.6347 36.0922 29.7791 36.0922 29.9296V30.974C36.0922 31.1245 36.0324 31.2688 35.9259 31.3753C35.8195 31.4817 35.6751 31.5415 35.5246 31.5415Z" fill="white"/>
<path d="M37.3312 31.5415C37.1807 31.5415 37.0364 31.4817 36.9299 31.3753C36.8235 31.2688 36.7637 31.1245 36.7637 30.974V29.9296C36.7637 29.7791 36.8235 29.6347 36.9299 29.5283C37.0364 29.4219 37.1807 29.3621 37.3312 29.3621C37.4818 29.3621 37.6261 29.4219 37.7326 29.5283C37.839 29.6347 37.8988 29.7791 37.8988 29.9296V30.974C37.8988 31.1245 37.839 31.2688 37.7326 31.3753C37.6261 31.4817 37.4818 31.5415 37.3312 31.5415Z" fill="white"/>
<path d="M35.5246 41.8656C35.3741 41.8656 35.2297 41.8058 35.1233 41.6993C35.0168 41.5929 34.957 41.4485 34.957 41.298V40.2565C34.957 40.106 35.0168 39.9616 35.1233 39.8552C35.2297 39.7488 35.3741 39.689 35.5246 39.689C35.6751 39.689 35.8195 39.7488 35.9259 39.8552C36.0324 39.9616 36.0922 40.106 36.0922 40.2565V41.3003C36.0916 41.4504 36.0315 41.5942 35.9251 41.7001C35.8188 41.8061 35.6747 41.8656 35.5246 41.8656Z" fill="white"/>
<path d="M37.3312 41.8656C37.1807 41.8656 37.0364 41.8058 36.9299 41.6993C36.8235 41.5929 36.7637 41.4485 36.7637 41.298V40.2565C36.7637 40.106 36.8235 39.9616 36.9299 39.8552C37.0364 39.7488 37.1807 39.689 37.3312 39.689C37.4818 39.689 37.6261 39.7488 37.7326 39.8552C37.839 39.9616 37.8988 40.106 37.8988 40.2565V41.3003C37.8982 41.4504 37.8382 41.5942 37.7318 41.7001C37.6254 41.8061 37.4814 41.8656 37.3312 41.8656Z" fill="white"/>
<path d="M35.0583 40.8241H34.2297C34.0791 40.8241 33.9348 40.7643 33.8283 40.6579C33.7219 40.5514 33.6621 40.4071 33.6621 40.2565C33.6621 40.106 33.7219 39.9616 33.8283 39.8552C33.9348 39.7488 34.0791 39.689 34.2297 39.689H35.0583C35.2089 39.689 35.3532 39.7488 35.4597 39.8552C35.5661 39.9616 35.6259 40.106 35.6259 40.2565C35.6259 40.4071 35.5661 40.5514 35.4597 40.6579C35.3532 40.7643 35.2089 40.8241 35.0583 40.8241Z" fill="white"/>
<path d="M36.9992 24.7576C36.8487 24.7576 36.7043 24.6978 36.5979 24.5913C36.4914 24.4849 36.4316 24.3405 36.4316 24.19V20.2534C36.4316 20.1028 36.4914 19.9585 36.5979 19.852C36.7043 19.7456 36.8487 19.6858 36.9992 19.6858C37.1497 19.6858 37.2941 19.7456 37.4005 19.852C37.507 19.9585 37.5668 20.1028 37.5668 20.2534V24.19C37.5668 24.3405 37.507 24.4849 37.4005 24.5913C37.2941 24.6978 37.1497 24.7576 36.9992 24.7576Z" fill="white"/>
<path d="M36.9992 20.8208C36.5358 20.8208 36.0828 20.6834 35.6975 20.426C35.3122 20.1686 35.0119 19.8026 34.8346 19.3745C34.6573 18.9464 34.6109 18.4753 34.7013 18.0208C34.7917 17.5664 35.0148 17.1489 35.3425 16.8212C35.6701 16.4936 36.0876 16.2704 36.5421 16.18C36.9966 16.0896 37.4676 16.136 37.8958 16.3134C38.3239 16.4907 38.6898 16.791 38.9472 17.1763C39.2047 17.5616 39.3421 18.0145 39.3421 18.4779C39.3413 19.0991 39.0942 19.6946 38.655 20.1338C38.2158 20.573 37.6203 20.8201 36.9992 20.8208ZM36.9992 17.2701C36.7603 17.2701 36.5268 17.341 36.3282 17.4737C36.1295 17.6064 35.9747 17.795 35.8833 18.0157C35.7919 18.2364 35.768 18.4793 35.8146 18.7136C35.8612 18.9478 35.9762 19.1631 36.1451 19.332C36.314 19.5009 36.5292 19.6159 36.7635 19.6625C36.9978 19.7091 37.2407 19.6852 37.4614 19.5938C37.6821 19.5024 37.8707 19.3476 38.0034 19.1489C38.1361 18.9503 38.2069 18.7168 38.2069 18.4779C38.2066 18.1577 38.0793 17.8507 37.8529 17.6242C37.6264 17.3978 37.3194 17.2704 36.9992 17.2701V17.2701Z" fill="white"/>
<path d="M36.9992 52.314C36.8487 52.314 36.7043 52.2542 36.5979 52.1477C36.4914 52.0413 36.4316 51.8969 36.4316 51.7464V47.8098C36.4316 47.6592 36.4914 47.5149 36.5979 47.4084C36.7043 47.302 36.8487 47.2422 36.9992 47.2422C37.1497 47.2422 37.2941 47.302 37.4005 47.4084C37.507 47.5149 37.5668 47.6592 37.5668 47.8098V51.7464C37.5668 51.8969 37.507 52.0413 37.4005 52.1477C37.2941 52.2542 37.1497 52.314 36.9992 52.314Z" fill="white"/>
<path d="M36.9992 55.8648C36.5358 55.8648 36.0828 55.7274 35.6975 55.4699C35.3122 55.2125 35.0119 54.8466 34.8346 54.4185C34.6573 53.9903 34.6109 53.5193 34.7013 53.0648C34.7917 52.6103 35.0148 52.1928 35.3425 51.8652C35.6701 51.5375 36.0876 51.3144 36.5421 51.224C36.9966 51.1336 37.4676 51.18 37.8958 51.3573C38.3239 51.5346 38.6898 51.8349 38.9472 52.2202C39.2047 52.6055 39.3421 53.0585 39.3421 53.5219C39.3413 54.143 39.0942 54.7385 38.655 55.1777C38.2158 55.6169 37.6203 55.864 36.9992 55.8648ZM36.9992 52.3141C36.7603 52.3141 36.5268 52.3849 36.3282 52.5176C36.1295 52.6503 35.9747 52.839 35.8833 53.0597C35.7919 53.2804 35.768 53.5232 35.8146 53.7575C35.8612 53.9918 35.9762 54.207 36.1451 54.3759C36.314 54.5448 36.5292 54.6598 36.7635 54.7064C36.9978 54.753 37.2407 54.7291 37.4614 54.6377C37.6821 54.5463 37.8707 54.3915 38.0034 54.1929C38.1361 53.9943 38.2069 53.7607 38.2069 53.5219C38.2066 53.2016 38.0793 52.8946 37.8529 52.6682C37.6264 52.4417 37.3194 52.3144 36.9992 52.3141Z" fill="white"/>
<path d="M52.7464 36.5675H48.8098C48.6592 36.5675 48.5149 36.5077 48.4084 36.4013C48.302 36.2948 48.2422 36.1505 48.2422 35.9999C48.2422 35.8494 48.302 35.7051 48.4084 35.5986C48.5149 35.4922 48.6592 35.4324 48.8098 35.4324H52.7464C52.8969 35.4324 53.0413 35.4922 53.1477 35.5986C53.2542 35.7051 53.314 35.8494 53.314 35.9999C53.314 36.1505 53.2542 36.2948 53.1477 36.4013C53.0413 36.5077 52.8969 36.5675 52.7464 36.5675Z" fill="white"/>
<path d="M54.5206 38.3428C54.0573 38.3428 53.6043 38.2054 53.219 37.948C52.8337 37.6905 52.5334 37.3246 52.3561 36.8965C52.1788 36.4684 52.1324 35.9973 52.2228 35.5428C52.3132 35.0883 52.5363 34.6709 52.864 34.3432C53.1916 34.0155 53.6091 33.7924 54.0636 33.702C54.518 33.6116 54.9891 33.658 55.4172 33.8353C55.8453 34.0127 56.2113 34.313 56.4687 34.6982C56.7261 35.0835 56.8636 35.5365 56.8636 35.9999C56.8628 36.621 56.6157 37.2165 56.1765 37.6558C55.7373 38.095 55.1418 38.3421 54.5206 38.3428ZM54.5206 34.7921C54.2818 34.7921 54.0483 34.863 53.8496 34.9957C53.651 35.1284 53.4962 35.317 53.4048 35.5377C53.3134 35.7584 53.2895 36.0012 53.3361 36.2355C53.3827 36.4698 53.4977 36.685 53.6666 36.8539C53.8355 37.0228 54.0507 37.1379 54.285 37.1845C54.5193 37.2311 54.7621 37.2072 54.9828 37.1157C55.2035 37.0243 55.3922 36.8695 55.5249 36.6709C55.6576 36.4723 55.7284 36.2388 55.7284 35.9999C55.7281 35.6797 55.6008 35.3726 55.3743 35.1462C55.1479 34.9198 54.8409 34.7924 54.5206 34.7921Z" fill="white"/>
<path d="M25.1898 36.5675H21.2531C21.1026 36.5675 20.9582 36.5077 20.8518 36.4013C20.7453 36.2948 20.6855 36.1505 20.6855 35.9999C20.6855 35.8494 20.7453 35.7051 20.8518 35.5986C20.9582 35.4922 21.1026 35.4324 21.2531 35.4324H25.1898C25.3403 35.4324 25.4847 35.4922 25.5911 35.5986C25.6975 35.7051 25.7573 35.8494 25.7573 35.9999C25.7573 36.1505 25.6975 36.2948 25.5911 36.4013C25.4847 36.5077 25.3403 36.5675 25.1898 36.5675Z" fill="white"/>
<path d="M19.4777 38.3428C19.0143 38.3428 18.5613 38.2054 18.176 37.948C17.7907 37.6905 17.4904 37.3246 17.3131 36.8965C17.1358 36.4684 17.0894 35.9973 17.1798 35.5428C17.2702 35.0883 17.4933 34.6709 17.821 34.3432C18.1487 34.0155 18.5661 33.7924 19.0206 33.702C19.4751 33.6116 19.9462 33.658 20.3743 33.8353C20.8024 34.0127 21.1683 34.313 21.4258 34.6982C21.6832 35.0835 21.8206 35.5365 21.8206 35.9999C21.8199 36.621 21.5728 37.2165 21.1336 37.6558C20.6943 38.095 20.0988 38.3421 19.4777 38.3428ZM19.4777 34.7921C19.2388 34.7921 19.0053 34.863 18.8067 34.9957C18.6081 35.1284 18.4533 35.317 18.3618 35.5377C18.2704 35.7584 18.2465 36.0012 18.2931 36.2355C18.3397 36.4698 18.4547 36.685 18.6237 36.8539C18.7926 37.0228 19.0078 37.1379 19.2421 37.1845C19.4763 37.2311 19.7192 37.2072 19.9399 37.1157C20.1606 37.0243 20.3492 36.8695 20.4819 36.6709C20.6146 36.4723 20.6855 36.2388 20.6855 35.9999C20.6852 35.6797 20.5578 35.3726 20.3314 35.1462C20.1049 34.9198 19.7979 34.7924 19.4777 34.7921Z" fill="white"/>
<path d="M27.1811 49.6941H22.6496C22.4991 49.6941 22.3547 49.6343 22.2483 49.5278C22.1418 49.4214 22.082 49.277 22.082 49.1265C22.082 48.976 22.1418 48.8316 22.2483 48.7252C22.3547 48.6187 22.4991 48.5589 22.6496 48.5589H26.8683L29.1386 44.9174C29.2182 44.7895 29.3454 44.6984 29.4922 44.6642C29.639 44.63 29.7933 44.6556 29.9213 44.7352C30.0492 44.8148 30.1403 44.942 30.1745 45.0888C30.2086 45.2356 30.1831 45.3899 30.1035 45.5179L27.6675 49.4267C27.6161 49.5092 27.5443 49.5771 27.4592 49.6239C27.374 49.6707 27.2782 49.6949 27.1811 49.6941V49.6941Z" fill="white"/>
<path d="M20.8756 51.4695C20.4122 51.4694 19.9593 51.3319 19.5741 51.0744C19.1888 50.8169 18.8886 50.4509 18.7114 50.0228C18.5341 49.5947 18.4878 49.1236 18.5783 48.6692C18.6688 48.2147 18.8919 47.7973 19.2196 47.4697C19.5473 47.1421 19.9648 46.919 20.4193 46.8287C20.8737 46.7383 21.3448 46.7847 21.7729 46.9621C22.2009 47.1394 22.5668 47.4397 22.8242 47.825C23.0816 48.2103 23.219 48.6632 23.219 49.1266C23.2184 49.7479 22.9713 50.3436 22.532 50.7828C22.0926 51.2221 21.4969 51.4691 20.8756 51.4695ZM20.8756 47.9188C20.6367 47.9189 20.4032 47.9899 20.2047 48.1226C20.0062 48.2554 19.8514 48.4441 19.7601 48.6648C19.6688 48.8855 19.6449 49.1283 19.6916 49.3626C19.7383 49.5968 19.8534 49.812 20.0223 49.9808C20.1912 50.1497 20.4064 50.2647 20.6407 50.3112C20.875 50.3578 21.1178 50.3338 21.3385 50.2424C21.5591 50.151 21.7477 49.9962 21.8804 49.7976C22.0131 49.5989 22.0839 49.3655 22.0839 49.1266C22.0836 48.8063 21.9562 48.4992 21.7296 48.2727C21.5031 48.0463 21.1959 47.919 20.8756 47.9188V47.9188Z" fill="white"/>
<path d="M29.6216 27.3496C29.5251 27.3498 29.4301 27.3253 29.3457 27.2785C29.2613 27.2317 29.1902 27.1642 29.1392 27.0823L26.8689 23.4408H22.6496C22.4991 23.4408 22.3547 23.381 22.2483 23.2746C22.1418 23.1681 22.082 23.0238 22.082 22.8732C22.082 22.7227 22.1418 22.5783 22.2483 22.4719C22.3547 22.3655 22.4991 22.3057 22.6496 22.3057H27.1811C27.2775 22.3056 27.3723 22.3302 27.4566 22.3769C27.5409 22.4237 27.6119 22.4912 27.6629 22.573L30.0989 26.4818C30.1523 26.5674 30.1819 26.6657 30.1846 26.7666C30.1874 26.8675 30.1632 26.9672 30.1146 27.0556C30.066 27.144 29.9947 27.2179 29.908 27.2695C29.8213 27.3212 29.7225 27.3489 29.6216 27.3496Z" fill="white"/>
<path d="M20.8756 25.2161C20.4122 25.216 19.9593 25.0785 19.5741 24.821C19.1888 24.5635 18.8886 24.1975 18.7114 23.7694C18.5341 23.3413 18.4878 22.8702 18.5783 22.4158C18.6688 21.9613 18.8919 21.5439 19.2196 21.2163C19.5473 20.8887 19.9648 20.6656 20.4193 20.5753C20.8737 20.4849 21.3448 20.5313 21.7729 20.7087C22.2009 20.886 22.5668 21.1863 22.8242 21.5716C23.0816 21.9569 23.219 22.4098 23.219 22.8732C23.2184 23.4945 22.9713 24.0902 22.532 24.5294C22.0926 24.9687 21.4969 25.2157 20.8756 25.2161V25.2161ZM20.8756 21.6654C20.6367 21.6655 20.4032 21.7365 20.2047 21.8692C20.0062 22.002 19.8514 22.1907 19.7601 22.4114C19.6688 22.6321 19.6449 22.8749 19.6916 23.1092C19.7383 23.3434 19.8534 23.5586 20.0223 23.7274C20.1912 23.8963 20.4064 24.0113 20.6407 24.0578C20.875 24.1044 21.1178 24.0804 21.3385 23.989C21.5591 23.8976 21.7477 23.7427 21.8804 23.5441C22.0131 23.3455 22.0839 23.112 22.0839 22.8732C22.0836 22.5529 21.9562 22.2457 21.7296 22.0193C21.5031 21.7928 21.1959 21.6656 20.8756 21.6654V21.6654Z" fill="white"/>
<path d="M51.3499 49.694H46.8184C46.722 49.6941 46.6272 49.6696 46.5429 49.6228C46.4586 49.576 46.3876 49.5085 46.3366 49.4267L43.8983 45.5179C43.8187 45.3899 43.7931 45.2356 43.8273 45.0888C43.8615 44.942 43.9525 44.8148 44.0805 44.7352C44.2084 44.6556 44.3628 44.63 44.5096 44.6642C44.6563 44.6984 44.7835 44.7895 44.8632 44.9174L47.1334 48.5589H51.3522C51.5027 48.5589 51.6471 48.6187 51.7535 48.7251C51.8599 48.8316 51.9197 48.9759 51.9197 49.1265C51.9197 49.277 51.8599 49.4214 51.7535 49.5278C51.6471 49.6342 51.5027 49.694 51.3522 49.694H51.3499Z" fill="white"/>
<path d="M53.1242 51.4695C52.6608 51.4695 52.2078 51.3321 51.8225 51.0747C51.4372 50.8172 51.1369 50.4513 50.9596 50.0232C50.7823 49.5951 50.7359 49.124 50.8263 48.6695C50.9167 48.215 51.1398 47.7976 51.4675 47.4699C51.7951 47.1423 52.2126 46.9191 52.6671 46.8287C53.1216 46.7383 53.5927 46.7847 54.0208 46.962C54.4489 47.1394 54.8148 47.4397 55.0722 47.825C55.3297 48.2102 55.4671 48.6632 55.4671 49.1266C55.4664 49.7478 55.2193 50.3433 54.78 50.7825C54.3408 51.2217 53.7453 51.4688 53.1242 51.4695V51.4695ZM53.1242 47.9188C52.8853 47.9188 52.6518 47.9897 52.4532 48.1224C52.2545 48.2551 52.0997 48.4437 52.0083 48.6644C51.9169 48.8851 51.893 49.1279 51.9396 49.3622C51.9862 49.5965 52.1012 49.8117 52.2701 49.9806C52.4391 50.1496 52.6543 50.2646 52.8885 50.3112C53.1228 50.3578 53.3657 50.3339 53.5864 50.2425C53.8071 50.151 53.9957 49.9962 54.1284 49.7976C54.2611 49.599 54.332 49.3655 54.332 49.1266C54.3315 48.8064 54.2041 48.4995 53.9777 48.2731C53.7513 48.0467 53.4444 47.9193 53.1242 47.9188V47.9188Z" fill="white"/>
<path d="M44.3778 27.3496C44.2765 27.3496 44.1772 27.3224 44.09 27.271C44.0027 27.2197 43.9309 27.1459 43.8818 27.0573C43.8327 26.9688 43.8081 26.8688 43.8107 26.7676C43.8133 26.6664 43.8429 26.5677 43.8965 26.4818L46.3325 22.573C46.3835 22.4912 46.4545 22.4237 46.5388 22.3769C46.6231 22.3302 46.7179 22.3056 46.8143 22.3057H51.3481C51.4986 22.3057 51.643 22.3655 51.7494 22.4719C51.8558 22.5783 51.9156 22.7227 51.9156 22.8732C51.9156 23.0238 51.8558 23.1681 51.7494 23.2746C51.643 23.381 51.4986 23.4408 51.3481 23.4408H47.131L44.8608 27.0823C44.8097 27.1643 44.7385 27.2319 44.654 27.2787C44.5694 27.3254 44.4744 27.3499 44.3778 27.3496V27.3496Z" fill="white"/>
<path d="M53.1242 25.2161C52.6608 25.2161 52.2078 25.0787 51.8225 24.8213C51.4372 24.5638 51.1369 24.1979 50.9596 23.7698C50.7823 23.3417 50.7359 22.8706 50.8263 22.4161C50.9167 21.9616 51.1398 21.5442 51.4675 21.2165C51.7951 20.8888 52.2126 20.6657 52.6671 20.5753C53.1216 20.4849 53.5927 20.5313 54.0208 20.7086C54.4489 20.8859 54.8148 21.1862 55.0722 21.5715C55.3297 21.9568 55.4671 22.4098 55.4671 22.8732C55.4662 23.4943 55.2191 24.0897 54.7799 24.5289C54.3407 24.9681 53.7453 25.2152 53.1242 25.2161V25.2161ZM53.1242 21.6654C52.8853 21.6654 52.6518 21.7362 52.4532 21.869C52.2545 22.0017 52.0997 22.1903 52.0083 22.411C51.9169 22.6317 51.893 22.8745 51.9396 23.1088C51.9862 23.3431 52.1012 23.5583 52.2701 23.7272C52.4391 23.8961 52.6543 24.0112 52.8885 24.0578C53.1228 24.1044 53.3657 24.0805 53.5864 23.989C53.8071 23.8976 53.9957 23.7428 54.1284 23.5442C54.2611 23.3456 54.332 23.1121 54.332 22.8732C54.3317 22.553 54.2043 22.2459 53.9779 22.0195C53.7514 21.7931 53.4444 21.6657 53.1242 21.6654V21.6654Z" fill="white"/>
<defs>
<linearGradient id="paint0_linear_9_8674" x1="37" y1="0" x2="37" y2="74" gradientUnits="userSpaceOnUse">
<stop stop-color="#84D8ED"/>
<stop offset="1" stop-color="#4292BB"/>
</linearGradient>
</defs>
</svg>
