<svg width="74" height="74" viewBox="0 0 74 74" fill="none" xmlns="http://www.w3.org/2000/svg">
<rect width="74" height="74" rx="37" fill="url(#paint0_linear_9_8794)"/>
<g clip-path="url(#clip0_9_8794)">
<path d="M39.4884 24.7263C37.6703 22.8496 35.2531 21.8159 32.6819 21.8159C30.1108 21.8159 27.6934 22.8495 25.8753 24.7263C22.1223 28.6004 22.1223 34.9042 25.8753 38.7785C27.6934 40.6552 30.1107 41.6888 32.6819 41.6888C35.2531 41.6888 37.6703 40.6553 39.4884 38.7785C41.3065 36.9018 42.3078 34.4065 42.3078 31.7524C42.3078 29.0983 41.3065 26.6031 39.4884 24.7263ZM26.6505 25.5265C28.2615 23.8636 30.4035 22.9476 32.6818 22.9476C34.9601 22.9476 37.1021 23.8636 38.7131 25.5265C39.9846 26.839 40.8048 28.493 41.0942 30.2881L38.1062 33.3043C37.8232 33.1394 37.4969 33.0449 37.1495 33.0449C36.4732 33.0449 35.8761 33.4017 35.5255 33.9424L31.1337 32.5199C31.1339 32.5068 31.1347 32.4937 31.1347 32.4805C31.1347 31.3686 30.2584 30.464 29.1812 30.464C28.104 30.464 27.2277 31.3686 27.2277 32.4805C27.2277 32.844 27.3218 33.185 27.4855 33.4799L25.1812 35.9456C23.4328 32.6084 23.9221 28.343 26.6505 25.5265ZM38.0068 35.0614C38.0068 35.5492 37.6222 35.9462 37.1496 35.9462C36.677 35.9462 36.2924 35.5492 36.2924 35.0614C36.2924 34.5735 36.677 34.1765 37.1496 34.1765C37.6222 34.1765 38.0068 34.5734 38.0068 35.0614ZM30.0385 32.4804C30.0385 32.9682 29.6539 33.3652 29.1812 33.3652C28.7085 33.3652 28.3239 32.9682 28.3239 32.4804C28.3239 31.9925 28.7085 31.5955 29.1812 31.5955C29.6539 31.5956 30.0385 31.9925 30.0385 32.4804ZM38.7132 37.9783C37.1022 39.6413 34.9602 40.5572 32.6819 40.5572C30.4036 40.5572 28.2616 39.6414 26.6506 37.9783C26.3306 37.648 26.0417 37.2976 25.7833 36.9313L28.2744 34.2657C28.5456 34.4131 28.8541 34.4969 29.1812 34.4969C29.8576 34.4969 30.4546 34.1401 30.8053 33.5994L35.197 35.0219C35.1968 35.035 35.1961 35.0481 35.1961 35.0613C35.1961 36.1732 36.0724 37.0778 37.1496 37.0778C38.2267 37.0778 39.1031 36.1732 39.1031 35.0613C39.1031 34.7187 39.0196 34.3959 38.873 34.1131L41.2115 31.7525C41.2114 34.1043 40.3241 36.3154 38.7132 37.9783Z" fill="white"/>
<path d="M27.8281 25.9801L28.5473 26.8342C30.2472 25.309 32.6305 24.8387 34.7676 25.6071L35.1282 24.5384C32.6212 23.637 29.824 24.1894 27.8281 25.9801Z" fill="white"/>
<path d="M36.5351 25.2241L35.9648 26.1906C36.255 26.373 36.5334 26.5822 36.7925 26.8122L37.5074 25.9542C37.2033 25.6842 36.8761 25.4386 36.5351 25.2241Z" fill="white"/>
<path d="M33.9937 38.1201C32.7603 38.3884 31.4927 38.2755 30.3276 37.7937L29.9199 38.8441C30.8033 39.2095 31.7366 39.3941 32.6769 39.3941C33.1916 39.3941 33.7083 39.3388 34.2199 39.2274L33.9937 38.1201Z" fill="white"/>
<path d="M46.4135 40.8435L45.6175 41.6651L43.6429 39.4863C45.98 35.9597 46.5427 31.5479 45.3302 27.595L46.8969 26.0135C47.1725 26.1672 47.4876 26.2545 47.8223 26.2545C48.8994 26.2545 49.7758 25.3499 49.7758 24.238C49.7758 23.9087 49.6985 23.5979 49.5623 23.323L52.9256 19.9281V21.6828H54.0218V18.0176H50.4712V19.1492H52.1291L48.8102 22.4994C48.5202 22.3231 48.1826 22.2214 47.8224 22.2214C46.7452 22.2214 45.8688 23.126 45.8688 24.2379C45.8688 24.5937 45.9589 24.9281 46.1163 25.2186L44.9156 26.4306C44.2692 24.8416 43.3212 23.3535 42.0697 22.0617C36.8931 16.7181 28.4705 16.7183 23.2939 22.0617C18.6827 26.8217 18.1792 34.2407 21.7832 39.5814L20.8602 40.569C20.589 40.4216 20.2806 40.3378 19.9534 40.3378C18.8763 40.3377 18 41.2423 18 42.3542C18 43.4661 18.8763 44.3707 19.9535 44.3707C21.0307 44.3707 21.907 43.4661 21.907 42.3542C21.907 41.9907 21.8129 41.6497 21.6491 41.3548L22.4555 40.4919C22.7182 40.819 22.9971 41.1367 23.2939 41.4431C25.8822 44.1148 29.282 45.4507 32.6818 45.4507C35.2916 45.4507 37.9012 44.6625 40.1439 43.0881L42.1232 45.2721L41.3002 46.1217L50.8865 55.9828L56 50.7045L46.4135 40.8435ZM47.8224 23.3531C48.295 23.3531 48.6796 23.7501 48.6796 24.238C48.6796 24.7259 48.295 25.1229 47.8224 25.1229C47.3497 25.1229 46.9651 24.7259 46.9651 24.238C46.9651 23.7501 47.3497 23.3531 47.8224 23.3531ZM19.9535 43.239C19.4809 43.239 19.0963 42.842 19.0963 42.3541C19.0963 41.8663 19.4809 41.4692 19.9535 41.4692C20.4262 41.4692 20.8107 41.8663 20.8107 42.3541C20.8107 42.8421 20.4261 43.239 19.9535 43.239ZM24.0691 40.643C19.3201 35.7407 19.3201 27.7643 24.0691 22.8619C26.4436 20.4107 29.5626 19.1853 32.6817 19.1853C35.8008 19.1853 38.92 20.4109 41.2944 22.8619C46.0435 27.7641 46.0435 35.7407 41.2944 40.643C36.5456 45.5451 28.818 45.5451 24.0691 40.643ZM41.0299 42.4092C41.3888 42.1093 41.736 41.7875 42.0697 41.4431C42.3921 41.1103 42.6944 40.7645 42.9765 40.4074L44.842 42.4656L42.8989 44.4714L41.0299 42.4092ZM50.8853 54.3838L42.852 46.1203L46.4149 42.4424L54.4482 50.7059L50.8853 54.3838Z" fill="white"/>
<path d="M46.4144 44.0852L44.8457 45.7044L45.621 46.5046L46.4144 45.6856L49.44 48.8088L50.2151 48.0086L46.4144 44.0852Z" fill="white"/>
<path d="M51.156 48.9749L50.3809 49.7788L51.1896 50.6175L51.9647 49.8136L51.156 48.9749Z" fill="white"/>
<path d="M25.0357 46.0305H23.9395V47.2634H25.0357V46.0305Z" fill="white"/>
<path d="M25.0357 52.9409H23.9395V54.1738H25.0357V52.9409Z" fill="white"/>
<path d="M34.065 48.4082H32.9688V49.6411H34.065V48.4082Z" fill="white"/>
<path d="M49.776 38.2305H48.6797V39.4634H49.776V38.2305Z" fill="white"/>
<path d="M51.0201 28.4109H49.9238V29.6438H51.0201V28.4109Z" fill="white"/>
<path d="M54.6529 33.6104H53.5566V34.8433H54.6529V33.6104Z" fill="white"/>
</g>
<defs>
<linearGradient id="paint0_linear_9_8794" x1="37" y1="0" x2="37" y2="74" gradientUnits="userSpaceOnUse">
<stop stop-color="#8684ED"/>
<stop offset="1" stop-color="#4247BB"/>
</linearGradient>
<clipPath id="clip0_9_8794">
<rect width="38" height="38" fill="white" transform="translate(18 18)"/>
</clipPath>
</defs>
</svg>
